<svg width="167" height="77" viewBox="0 0 167 77" fill="none" xmlns="http://www.w3.org/2000/svg">
<path d="M62.6594 64.4239L59.7112 45.0993L67.3877 41.5197L77.7418 63.7243L73.1423 65.869L64.5779 47.5027L67.3691 68.5611L62.6744 70.7503L48.32 55.1226L56.8695 73.4572L52.3018 75.5872L41.9476 53.3826L49.7192 49.7587L62.6594 64.4239ZM94.9839 49.428C95.3062 51.3888 94.9955 53.2072 94.052 54.8829C93.0986 56.5375 91.6068 57.8382 89.5767 58.7848C87.8849 59.5737 86.2419 59.9151 84.6477 59.8089C83.0746 59.6928 81.6433 59.1631 80.3537 58.2197C79.0854 57.2664 78.0617 55.9544 77.2826 54.2838C76.5036 52.6132 76.1672 50.9808 76.2734 49.3865C76.3796 47.7923 76.8938 46.3553 77.8161 45.0756C78.7595 43.7861 80.0665 42.7518 81.7371 41.9728C83.2809 41.253 84.7724 40.9179 86.2116 40.9677C87.6719 41.0076 88.9609 41.3977 90.0785 42.1381C91.1863 42.8573 92.0409 43.8619 92.6424 45.1519C93.0664 46.0612 93.3326 47.0184 93.4408 48.0235L82.3068 53.2154C83.0184 54.2996 83.8498 55.0061 84.8012 55.3348C85.7526 55.6635 86.7887 55.5666 87.9095 55.0439C88.7131 54.6692 89.3159 54.195 89.7178 53.6214C90.131 53.0168 90.3215 52.3487 90.2893 51.6171L94.9839 49.428ZM83.3769 45.5721C82.3618 46.0454 81.6653 46.7049 81.2872 47.5505C80.8993 48.3751 80.8413 49.3547 81.113 50.4896L88.0281 47.265L87.8675 46.8378C87.4731 45.9919 86.8876 45.454 86.1109 45.224C85.3244 44.9728 84.4131 45.0889 83.3769 45.5721ZM101.152 25.7749L105.466 23.7633L115.821 45.9678L111.507 47.9795L110.516 45.8542C110.308 46.955 109.869 47.9452 109.197 48.8246C108.516 49.6828 107.615 50.3733 106.495 50.8959C105.099 51.5467 103.688 51.7796 102.263 51.5945C100.838 51.4095 99.5233 50.8255 98.3184 49.8426C97.1036 48.8386 96.1116 47.5119 95.3424 45.8624C94.5732 44.2129 94.1995 42.6108 94.2211 41.056C94.2328 39.48 94.6152 38.0917 95.3683 36.8909C96.1426 35.6803 97.2275 34.7495 98.6232 34.0987C99.744 33.5761 100.857 33.3403 101.962 33.3914C103.057 33.4213 104.109 33.7162 105.117 34.2761L101.152 25.7749ZM106.128 46.5485C107.354 45.9766 108.141 45.0951 108.486 43.9041C108.843 42.6821 108.691 41.3626 108.031 39.9458C107.37 38.5289 106.462 37.575 105.306 37.0841C104.162 36.5622 102.976 36.5873 101.75 37.1592C100.502 37.741 99.6996 38.6429 99.3426 39.865C98.9969 41.056 99.1544 42.3599 99.815 43.7768C100.476 45.1936 101.378 46.163 102.523 46.6849C103.679 47.1758 104.88 47.1304 106.128 46.5485ZM121.385 24.0641L125.699 22.0525L133.095 37.9129L128.781 39.9245L127.568 37.3234C127.462 38.5314 127.098 39.6019 126.478 40.5349C125.847 41.4467 124.982 42.159 123.883 42.6718C121.916 43.5889 120.228 43.4749 118.819 42.3299C117.409 41.1849 116.256 39.6502 115.359 37.7258L111.202 28.8122L115.516 26.8006L119.673 35.7141C120.836 38.2095 122.232 39.0775 123.861 38.3182C124.897 37.835 125.524 37.0275 125.743 35.8956C125.973 34.7328 125.763 33.4535 125.112 32.0578L121.385 24.0641ZM143.02 33.8639C140.715 34.9388 138.639 35.2631 136.792 34.8368C134.957 34.3796 133.642 33.2163 132.848 31.3469L137.003 29.4092C137.336 30.2325 137.896 30.7436 138.684 30.9426C139.483 31.1106 140.401 30.953 141.437 30.4698C142.283 30.0754 142.901 29.6068 143.292 29.0643C143.682 28.5217 143.769 28.0178 143.552 27.5525C143.326 27.0661 142.872 26.8398 142.193 26.8734C141.514 26.907 140.511 27.1041 139.186 27.4645C137.683 27.8306 136.445 28.0734 135.471 28.1929C134.497 28.3124 133.545 28.2029 132.614 27.8643C131.674 27.5046 130.943 26.7643 130.42 25.6435C129.671 24.0364 129.735 22.4618 130.612 20.92C131.479 19.357 132.939 18.0972 134.99 17.1407C136.322 16.5194 137.616 16.1737 138.87 16.1036C140.136 16.0025 141.253 16.1896 142.221 16.6649C143.19 17.1403 143.915 17.896 144.399 18.9322C144.537 19.2283 144.648 19.5497 144.732 19.8965L140.545 21.849C140.469 21.5755 140.406 21.3859 140.357 21.2802C140.061 20.6458 139.565 20.2721 138.869 20.1591C138.184 20.0151 137.418 20.1403 136.573 20.5348C135.79 20.8996 135.24 21.3492 134.923 21.8833C134.596 22.3963 134.541 22.8854 134.758 23.3507C134.994 23.8582 135.452 24.0952 136.132 24.0615C136.801 24.0067 137.825 23.7998 139.202 23.4408C140.674 23.0634 141.897 22.815 142.871 22.6955C143.845 22.5759 144.786 22.6904 145.696 23.0388C146.626 23.3774 147.352 24.1071 147.875 25.2279C148.634 26.8563 148.554 28.4512 147.635 30.0128C146.736 31.5645 145.198 32.8482 143.02 33.8639ZM151.761 9.32004C154.13 8.2156 156.244 8.02804 158.103 8.75736C159.983 9.47682 161.455 10.9785 162.52 13.2624L166.706 22.2394L162.836 24.044L161.564 21.316C161.455 22.6283 161.043 23.7862 160.326 24.7896C159.631 25.7832 158.639 26.5807 157.349 27.1823C155.657 27.9711 154.107 28.1532 152.699 27.7285C151.312 27.294 150.293 26.3788 149.642 24.9831C148.903 23.3971 148.976 21.8437 149.863 20.323C150.741 18.7811 152.3 17.4875 154.542 16.4423C155.747 15.8802 156.954 15.4591 158.162 15.1789C156.996 12.7878 155.418 12.0558 153.431 12.9827C152.712 13.318 152.21 13.7323 151.925 14.2256C151.64 14.7188 151.631 15.251 151.897 15.8219C151.946 15.9277 152.041 16.0764 152.182 16.2682L147.868 18.2798C147.626 17.9809 147.411 17.6306 147.223 17.2288C146.77 16.256 146.671 15.2721 146.928 14.277C147.185 13.2818 147.743 12.3524 148.602 11.4885C149.46 10.6247 150.514 9.90185 151.761 9.32004ZM156.808 23.4565C157.802 22.993 158.557 22.2934 159.074 21.3575C159.601 20.3907 159.818 19.3371 159.724 18.1966C158.561 18.3528 157.429 18.6872 156.33 19.2C155.188 19.7325 154.415 20.3116 154.012 20.9374C153.62 21.5321 153.572 22.1467 153.867 22.7811C154.124 23.3309 154.511 23.6651 155.03 23.7837C155.539 23.8811 156.132 23.772 156.808 23.4565Z" fill="white"/>
<path d="M62.6594 64.4239L61.1597 65.7472L65.663 70.8508L64.6365 64.1223L62.6594 64.4239ZM59.7112 45.0993L58.866 43.2867L57.5082 43.9199L57.7341 45.4009L59.7112 45.0993ZM67.3877 41.5197L69.2003 40.6745L68.355 38.8619L66.5424 39.7071L67.3877 41.5197ZM77.7418 63.7243L78.587 65.5369L80.3997 64.6916L79.5544 62.879L77.7418 63.7243ZM73.1423 65.869L71.3297 66.7143L72.1749 68.5269L73.9875 67.6817L73.1423 65.869ZM64.5779 47.5027L66.3906 46.6575L62.5953 47.7655L64.5779 47.5027ZM67.3691 68.5611L68.2144 70.3737L69.5446 69.7534L69.3518 68.2983L67.3691 68.5611ZM62.6744 70.7503L61.2015 72.1032L62.1923 73.1819L63.5197 72.5629L62.6744 70.7503ZM48.32 55.1226L49.7929 53.7696L46.5074 55.9678L48.32 55.1226ZM56.8695 73.4572L57.7148 75.2698L59.5274 74.4245L58.6822 72.6119L56.8695 73.4572ZM52.3018 75.5872L50.4891 76.4324L51.3344 78.245L53.147 77.3998L52.3018 75.5872ZM41.9476 53.3826L41.1024 51.57L39.2898 52.4152L40.135 54.2279L41.9476 53.3826ZM49.7192 49.7587L51.2189 48.4354L50.2294 47.314L48.874 47.946L49.7192 49.7587ZM64.6365 64.1223L61.6884 44.7977L57.7341 45.4009L60.6823 64.7255L64.6365 64.1223ZM60.5565 46.9119L68.2329 43.3323L66.5424 39.7071L58.866 43.2867L60.5565 46.9119ZM65.575 42.365L75.9292 64.5695L79.5544 62.879L69.2003 40.6745L65.575 42.365ZM76.8966 61.9116L72.2971 64.0564L73.9875 67.6817L78.587 65.5369L76.8966 61.9116ZM74.9549 65.0238L66.3906 46.6575L62.7653 48.348L71.3297 66.7143L74.9549 65.0238ZM62.5953 47.7655L65.3865 68.8239L69.3518 68.2983L66.5606 47.2399L62.5953 47.7655ZM66.5239 66.7485L61.8292 68.9377L63.5197 72.5629L68.2144 70.3737L66.5239 66.7485ZM64.1474 69.3974L49.7929 53.7696L46.847 56.4755L61.2015 72.1032L64.1474 69.3974ZM46.5074 55.9678L55.0569 74.3024L58.6822 72.6119L50.1326 54.2773L46.5074 55.9678ZM56.0243 71.6445L51.4565 73.7745L53.147 77.3998L57.7148 75.2698L56.0243 71.6445ZM54.1144 74.7419L43.7602 52.5374L40.135 54.2279L50.4891 76.4324L54.1144 74.7419ZM42.7928 55.1952L50.5644 51.5713L48.874 47.946L41.1024 51.57L42.7928 55.1952ZM48.2195 51.0819L61.1597 65.7472L64.1591 63.1007L51.2189 48.4354L48.2195 51.0819ZM94.9839 49.428L96.9575 49.1037L96.5297 46.5004L94.1387 47.6154L94.9839 49.428ZM94.052 54.8829L95.7849 55.8814L95.7899 55.8728L95.7947 55.8642L94.052 54.8829ZM84.6477 59.8089L84.5005 61.8035L84.5076 61.804L84.5148 61.8045L84.6477 59.8089ZM80.3537 58.2197L79.1521 59.8185L79.1624 59.8262L79.1728 59.8338L80.3537 58.2197ZM76.2734 49.3865L74.2778 49.2536L76.2734 49.3865ZM77.8161 45.0756L76.2019 43.8947L76.1977 43.9005L76.1936 43.9063L77.8161 45.0756ZM86.2116 40.9677L86.1425 42.9665L86.1497 42.9667L86.1569 42.9669L86.2116 40.9677ZM90.0785 42.1381L88.974 43.8054L88.9816 43.8105L88.9894 43.8155L90.0785 42.1381ZM93.4408 48.0235L94.2861 49.8361L95.5825 49.2316L95.4293 47.8094L93.4408 48.0235ZM82.3068 53.2154L81.4616 51.4028L79.3663 52.3799L80.6348 54.3127L82.3068 53.2154ZM84.8012 55.3348L84.1481 57.2251L84.1481 57.2251L84.8012 55.3348ZM89.7178 53.6214L91.3557 54.7691L91.3624 54.7596L91.369 54.7499L89.7178 53.6214ZM90.2893 51.6171L89.444 49.8045L88.2324 50.3695L88.2912 51.7051L90.2893 51.6171ZM81.2872 47.5505L83.097 48.4019L83.1052 48.3844L83.1131 48.3667L81.2872 47.5505ZM81.113 50.4896L79.168 50.9553L79.7383 53.3373L81.9582 52.3022L81.113 50.4896ZM88.0281 47.265L88.8734 49.0776L90.5519 48.2949L89.9002 46.5612L88.0281 47.265ZM87.8675 46.8378L89.7396 46.1341L89.7126 46.0622L89.6802 45.9926L87.8675 46.8378ZM86.1109 45.224L85.5026 47.1292L85.5227 47.1356L85.543 47.1417L86.1109 45.224ZM93.0104 49.7523C93.2616 51.2806 93.0217 52.6363 92.3092 53.9017L95.7947 55.8642C96.9693 53.7781 97.3508 51.4971 96.9575 49.1037L93.0104 49.7523ZM92.3191 53.8844C91.6046 55.1244 90.4553 56.1684 88.7315 56.9722L90.4219 60.5974C92.7584 59.508 94.5926 57.9506 95.7849 55.8814L92.3191 53.8844ZM88.7315 56.9722C87.2935 57.6428 85.986 57.8936 84.7806 57.8133L84.5148 61.8045C86.4979 61.9365 88.4764 61.5047 90.4219 60.5974L88.7315 56.9722ZM84.7948 57.8143C83.6002 57.7262 82.5261 57.3309 81.5347 56.6055L79.1728 59.8338C80.7604 60.9953 82.5489 61.6595 84.5005 61.8035L84.7948 57.8143ZM81.5553 56.6209C80.589 55.8946 79.7581 54.86 79.0953 53.4386L75.47 55.1291C76.3652 57.0489 77.5818 58.6382 79.1521 59.8185L81.5553 56.6209ZM79.0953 53.4386C78.4366 52.026 78.1884 50.7289 78.269 49.5194L74.2778 49.2536C74.146 51.2326 74.5707 53.2004 75.47 55.1291L79.0953 53.4386ZM78.269 49.5194C78.3506 48.2937 78.7382 47.2168 79.4386 46.245L76.1936 43.9063C75.0494 45.4938 74.4085 47.2909 74.2778 49.2536L78.269 49.5194ZM79.4302 46.2566C80.1459 45.2783 81.1698 44.4441 82.5824 43.7854L80.8919 40.1602C78.9632 41.0596 77.3731 42.294 76.2019 43.8947L79.4302 46.2566ZM82.5824 43.7854C83.8923 43.1746 85.0712 42.9294 86.1425 42.9665L86.2807 38.9689C84.4735 38.9064 82.6695 39.3313 80.8919 40.1602L82.5824 43.7854ZM86.1569 42.9669C87.278 42.9976 88.1962 43.2902 88.974 43.8054L91.1831 40.4708C89.7256 39.5053 88.0659 39.0176 86.2662 38.9684L86.1569 42.9669ZM88.9894 43.8155C89.7583 44.3148 90.3739 45.0194 90.8298 45.9971L94.455 44.3067C93.7079 42.7044 92.6142 41.3999 91.1676 40.4606L88.9894 43.8155ZM90.8298 45.9971C91.1602 46.7057 91.3674 47.4495 91.4523 48.2377L95.4293 47.8094C95.2977 46.5874 94.9727 45.4168 94.455 44.3067L90.8298 45.9971ZM92.5956 46.2109L81.4616 51.4028L83.1521 55.028L94.2861 49.8361L92.5956 46.2109ZM80.6348 54.3127C81.5184 55.6592 82.6716 56.715 84.1481 57.2251L85.4544 53.4444C85.0281 53.2972 84.5184 52.9401 83.9789 52.1181L80.6348 54.3127ZM84.1481 57.2251C85.6971 57.7603 87.2772 57.5455 88.7548 56.8565L87.0643 53.2313C86.3003 53.5876 85.8082 53.5667 85.4544 53.4444L84.1481 57.2251ZM88.7548 56.8565C89.7931 56.3723 90.7056 55.6969 91.3557 54.7691L88.0798 52.4738C87.9261 52.6932 87.6331 52.9661 87.0643 53.2313L88.7548 56.8565ZM91.369 54.7499C92.0264 53.788 92.3386 52.6931 92.2873 51.5292L88.2912 51.7051C88.3044 52.0044 88.2356 52.2456 88.0666 52.493L91.369 54.7499ZM91.1345 53.4297L95.8292 51.2406L94.1387 47.6154L89.444 49.8045L91.1345 53.4297ZM82.5316 43.7594C81.1758 44.3917 80.0748 45.362 79.4614 46.7343L83.1131 48.3667C83.2557 48.0477 83.5478 47.6991 84.2221 47.3847L82.5316 43.7594ZM79.4775 46.6992C78.8476 48.0381 78.8206 49.5046 79.168 50.9553L83.058 50.0238C82.8619 49.2049 82.9511 48.712 83.097 48.4019L79.4775 46.6992ZM81.9582 52.3022L88.8734 49.0776L87.1829 45.4524L80.2678 48.6769L81.9582 52.3022ZM89.9002 46.5612L89.7396 46.1341L85.9954 47.5415L86.156 47.9687L89.9002 46.5612ZM89.6802 45.9926C89.0844 44.7149 88.091 43.7245 86.6788 43.3063L85.543 47.1417C85.6841 47.1834 85.8618 47.269 86.0549 47.683L89.6802 45.9926ZM86.7193 43.3188C85.296 42.8643 83.847 43.1461 82.5316 43.7594L84.2221 47.3847C84.9792 47.0316 85.3529 47.0814 85.5026 47.1292L86.7193 43.3188ZM101.152 25.7749L100.307 23.9623L98.4946 24.8076L99.3398 26.6202L101.152 25.7749ZM105.466 23.7633L107.279 22.918L106.434 21.1054L104.621 21.9507L105.466 23.7633ZM115.821 45.9678L116.666 47.7804L118.478 46.9352L117.633 45.1226L115.821 45.9678ZM111.507 47.9795L109.694 48.8247L110.539 50.6373L112.352 49.7921L111.507 47.9795ZM110.516 45.8542L112.328 45.009L109.702 39.3762L108.55 45.4837L110.516 45.8542ZM109.197 48.8246L110.764 50.0678L110.776 50.053L110.787 50.0381L109.197 48.8246ZM98.3184 49.8426L97.0442 51.3843L97.0542 51.3924L98.3184 49.8426ZM94.2211 41.056L96.2209 41.0838L96.221 41.0709L94.2211 41.056ZM95.3683 36.8909L93.6834 35.8134L93.6787 35.8208L93.674 35.8283L95.3683 36.8909ZM101.962 33.3914L101.87 35.3892L101.889 35.3901L101.908 35.3906L101.962 33.3914ZM105.117 34.2761L104.145 36.0244L109.535 39.0191L106.929 33.4309L105.117 34.2761ZM108.486 43.9041L106.567 43.3433L106.566 43.3466L108.486 43.9041ZM105.306 37.0841L104.476 38.9038L104.5 38.9147L104.524 38.925L105.306 37.0841ZM99.3426 39.865L97.4228 39.3041L97.4218 39.3074L99.3426 39.865ZM102.523 46.6849L101.693 48.5046L101.717 48.5155L101.741 48.5258L102.523 46.6849ZM101.998 27.5876L106.312 25.5759L104.621 21.9507L100.307 23.9623L101.998 27.5876ZM103.654 24.6085L114.008 46.8131L117.633 45.1226L107.279 22.918L103.654 24.6085ZM114.975 44.1552L110.661 46.1669L112.352 49.7921L116.666 47.7804L114.975 44.1552ZM113.319 47.1342L112.328 45.009L108.703 46.6994L109.694 48.8247L113.319 47.1342ZM108.55 45.4837C108.4 46.2821 108.087 46.9828 107.608 47.6111L110.787 50.0381C111.65 48.9076 112.216 47.628 112.481 46.2247L108.55 45.4837ZM107.631 47.5813C107.166 48.1667 106.525 48.6749 105.649 49.0833L107.34 52.7085C108.705 52.0717 109.866 51.199 110.764 50.0678L107.631 47.5813ZM105.649 49.0833C104.572 49.5857 103.542 49.7439 102.521 49.6112L102.006 53.5779C103.834 53.8154 105.626 53.5078 107.34 52.7085L105.649 49.0833ZM102.521 49.6112C101.495 49.478 100.523 49.0603 99.5825 48.2928L97.0542 51.3924C98.5231 52.5907 100.181 53.3409 102.006 53.5779L102.521 49.6112ZM99.5925 48.301C98.6396 47.5135 97.818 46.439 97.155 45.0172L93.5298 46.7076C94.4051 48.5848 95.5675 50.1638 97.0442 51.3843L99.5925 48.301ZM97.155 45.0172C96.4916 43.5945 96.2041 42.2899 96.2209 41.0838L92.2213 41.0282C92.1948 42.9317 92.6549 44.8313 93.5298 46.7076L97.155 45.0172ZM96.221 41.0709C96.2303 39.823 96.5281 38.8058 97.0627 37.9535L93.674 35.8283C92.7023 37.3775 92.2353 39.1371 92.2211 41.0411L96.221 41.0709ZM97.0532 37.9684C97.6082 37.1006 98.391 36.4137 99.4685 35.9113L97.778 32.2861C96.0641 33.0853 94.6769 34.2599 93.6834 35.8134L97.0532 37.9684ZM99.4685 35.9113C100.331 35.509 101.124 35.3548 101.87 35.3892L102.054 31.3935C100.59 31.3258 99.1568 31.6432 97.778 32.2861L99.4685 35.9113ZM101.908 35.3906C102.665 35.4113 103.403 35.6122 104.145 36.0244L106.088 32.5279C104.814 31.8202 103.45 31.4313 102.017 31.3921L101.908 35.3906ZM106.929 33.4309L102.965 24.9297L99.3398 26.6202L103.304 35.1213L106.929 33.4309ZM106.973 48.3612C108.669 47.5705 109.885 46.2609 110.407 44.4616L106.566 43.3466C106.396 43.9293 106.04 44.3827 105.283 44.7359L106.973 48.3612ZM110.406 44.4649C110.928 42.6768 110.661 40.8529 109.843 39.1005L106.218 40.791C106.722 41.8723 106.758 42.6874 106.567 43.3433L110.406 44.4649ZM109.843 39.1005C109.027 37.3501 107.802 35.9715 106.088 35.2433L104.524 38.925C105.121 39.1785 105.713 39.7077 106.218 40.791L109.843 39.1005ZM106.136 35.2644C104.415 34.4795 102.616 34.5486 100.904 35.3466L102.595 38.9718C103.337 38.6259 103.909 38.645 104.476 38.9038L106.136 35.2644ZM100.904 35.3466C99.1829 36.1493 97.9554 37.4809 97.4228 39.3041L101.262 40.4258C101.444 39.8049 101.821 39.3327 102.595 38.9718L100.904 35.3466ZM97.4218 39.3074C96.9087 41.0753 97.1921 42.8842 98.0024 44.622L101.628 42.9315C101.117 41.8356 101.085 41.0367 101.263 40.4225L97.4218 39.3074ZM98.0024 44.622C98.8138 46.362 100.018 47.7407 101.693 48.5046L103.353 44.8652C102.739 44.5853 102.138 44.0253 101.628 42.9315L98.0024 44.622ZM101.741 48.5258C103.472 49.2611 105.267 49.1567 106.973 48.3612L105.283 44.7359C104.493 45.104 103.885 45.0905 103.305 44.8441L101.741 48.5258ZM121.385 24.0641L120.539 22.2515L118.727 23.0967L119.572 24.9094L121.385 24.0641ZM125.699 22.0525L127.511 21.2072L126.666 19.3946L124.853 20.2398L125.699 22.0525ZM133.095 37.9129L133.94 39.7255L135.752 38.8802L134.907 37.0676L133.095 37.9129ZM128.781 39.9245L126.968 40.7698L127.813 42.5824L129.626 41.7371L128.781 39.9245ZM127.568 37.3234L129.38 36.4782L126.228 29.7177L125.575 37.1485L127.568 37.3234ZM126.478 40.5349L128.123 41.6722L128.133 41.6574L128.143 41.6425L126.478 40.5349ZM118.819 42.3299L117.558 43.8821L118.819 42.3299ZM111.202 28.8122L110.357 26.9996L108.544 27.8449L109.39 29.6575L111.202 28.8122ZM115.516 26.8006L117.329 25.9553L116.484 24.1427L114.671 24.988L115.516 26.8006ZM125.743 35.8956L123.781 35.5074L123.78 35.516L125.743 35.8956ZM122.23 25.8767L126.544 23.8651L124.853 20.2398L120.539 22.2515L122.23 25.8767ZM123.886 22.8977L131.282 38.7581L134.907 37.0676L127.511 21.2072L123.886 22.8977ZM132.249 36.1002L127.935 38.1119L129.626 41.7371L133.94 39.7255L132.249 36.1002ZM130.593 39.0793L129.38 36.4782L125.755 38.1686L126.968 40.7698L130.593 39.0793ZM125.575 37.1485C125.496 38.0513 125.233 38.7956 124.812 39.4273L128.143 41.6425C128.964 40.4082 129.427 39.0115 129.56 37.4984L125.575 37.1485ZM124.833 39.3976C124.423 39.9901 123.847 40.4819 123.037 40.8592L124.728 44.4844C126.118 43.8362 127.272 42.9034 128.123 41.6722L124.833 39.3976ZM123.037 40.8592C122.276 41.2144 121.701 41.3074 121.276 41.2787C120.875 41.2516 120.489 41.1098 120.08 40.7777L117.558 43.8821C118.558 44.6951 119.72 45.1827 121.007 45.2696C122.27 45.3549 123.523 45.0463 124.728 44.4844L123.037 40.8592ZM120.08 40.7777C118.942 39.8533 117.962 38.5768 117.171 36.8805L113.546 38.571C114.55 40.7235 115.877 42.5165 117.558 43.8821L120.08 40.7777ZM117.171 36.8805L113.015 27.967L109.39 29.6575L113.546 38.571L117.171 36.8805ZM112.048 30.6249L116.362 28.6132L114.671 24.988L110.357 26.9996L112.048 30.6249ZM113.704 27.6458L117.86 36.5594L121.485 34.8689L117.329 25.9553L113.704 27.6458ZM117.86 36.5594C118.507 37.9464 119.354 39.2 120.536 39.9351C121.869 40.7636 123.347 40.7645 124.706 40.1308L123.015 36.5056C122.842 36.5867 122.763 36.5841 122.755 36.5839C122.748 36.5836 122.742 36.5828 122.732 36.5795C122.72 36.5759 122.693 36.5657 122.649 36.5382C122.435 36.4053 122.002 35.9772 121.485 34.8689L117.86 36.5594ZM124.706 40.1308C126.329 39.3741 127.368 38.0302 127.707 36.2753L123.78 35.516C123.681 36.0248 123.465 36.2959 123.015 36.5056L124.706 40.1308ZM127.705 36.2839C128.039 34.5951 127.701 32.8781 126.925 31.2125L123.3 32.903C123.825 34.0289 123.907 34.8704 123.781 35.5074L127.705 36.2839ZM126.925 31.2125L123.197 23.2189L119.572 24.9094L123.3 32.903L126.925 31.2125ZM136.792 34.8368L136.309 36.7775L136.326 36.7817L136.343 36.7856L136.792 34.8368ZM132.848 31.3469L132.003 29.5343L130.252 30.3508L131.007 32.1291L132.848 31.3469ZM137.003 29.4092L138.858 28.6604L138.069 26.7057L136.158 27.5965L137.003 29.4092ZM138.684 30.9426L138.194 32.8817L138.233 32.8916L138.273 32.8999L138.684 30.9426ZM143.292 29.0643L141.669 27.8957L143.292 29.0643ZM142.193 26.8734L142.094 24.8758L142.193 26.8734ZM139.186 27.4645L139.659 29.4077L139.685 29.4014L139.711 29.3944L139.186 27.4645ZM135.471 28.1929L135.714 30.178L135.471 28.1929ZM132.614 27.8643L131.9 29.7323L131.915 29.7381L131.93 29.7437L132.614 27.8643ZM130.612 20.92L132.35 21.909L132.355 21.8997L132.361 21.8904L130.612 20.92ZM138.87 16.1036L138.982 18.1005L139.006 18.0992L139.029 18.0973L138.87 16.1036ZM142.221 16.6649L143.103 14.8696L143.103 14.8696L142.221 16.6649ZM144.732 19.8965L145.578 21.7091L147.064 21.0162L146.676 19.4232L144.732 19.8965ZM140.545 21.849L138.618 22.3848L139.251 24.6594L141.39 23.6616L140.545 21.849ZM138.869 20.1591L138.458 22.1163L138.503 22.1259L138.549 22.1333L138.869 20.1591ZM134.923 21.8833L136.609 22.9588L136.626 22.932L136.642 22.9048L134.923 21.8833ZM136.132 24.0615L136.231 26.0591L136.263 26.0575L136.295 26.0549L136.132 24.0615ZM139.202 23.4408L138.705 21.5034L138.698 21.5055L139.202 23.4408ZM142.871 22.6955L142.627 20.7104L142.627 20.7104L142.871 22.6955ZM145.696 23.0388L144.98 24.9064L144.996 24.9124L145.012 24.9182L145.696 23.0388ZM147.635 30.0128L145.911 28.998L145.907 29.0043L145.904 29.0107L147.635 30.0128ZM142.175 32.0513C140.136 33.0018 138.526 33.1844 137.242 32.8881L136.343 36.7856C138.752 37.3417 141.293 36.8757 143.865 35.6765L142.175 32.0513ZM137.276 32.8962C136.1 32.6033 135.259 31.9059 134.689 30.5646L131.007 32.1291C132.026 34.5266 133.814 36.1559 136.309 36.7775L137.276 32.8962ZM133.693 33.1595L137.849 31.2218L136.158 27.5965L132.003 29.5343L133.693 33.1595ZM135.149 30.158C135.695 31.5094 136.724 32.5104 138.194 32.8817L139.174 29.0035C139.076 28.9788 139.04 28.95 139.021 28.9326C138.997 28.9106 138.931 28.8415 138.858 28.6604L135.149 30.158ZM138.273 32.8999C139.635 33.1862 141.007 32.8771 142.282 32.2824L140.592 28.6572C139.795 29.0289 139.331 29.035 139.095 28.9854L138.273 32.8999ZM142.282 32.2824C143.322 31.7977 144.261 31.1415 144.915 30.2328L141.669 27.8957C141.542 28.0722 141.244 28.353 140.592 28.6572L142.282 32.2824ZM144.915 30.2328C145.581 29.3079 145.982 28.0295 145.365 26.7073L141.74 28.3978C141.713 28.3399 141.688 28.264 141.676 28.1748C141.664 28.0855 141.668 28.0047 141.679 27.9397C141.7 27.8152 141.739 27.798 141.669 27.8957L144.915 30.2328ZM145.365 26.7073C145.073 26.0809 144.592 25.5564 143.936 25.2288C143.315 24.9182 142.664 24.8476 142.094 24.8758L142.292 28.8709C142.402 28.8655 142.317 28.8913 142.149 28.8071C142.061 28.7634 141.972 28.6998 141.893 28.617C141.815 28.5352 141.767 28.4556 141.74 28.3978L145.365 26.7073ZM142.094 24.8758C141.189 24.9206 140.015 25.1664 138.661 25.5347L139.711 29.3944C141.008 29.0417 141.838 28.8934 142.292 28.8709L142.094 24.8758ZM138.713 25.5214C137.248 25.8782 136.093 26.1015 135.227 26.2078L135.714 30.178C136.797 30.0452 138.119 29.783 139.659 29.4077L138.713 25.5214ZM135.227 26.2078C134.569 26.2886 133.935 26.2166 133.298 25.985L131.93 29.7437C133.154 30.1893 134.424 30.3363 135.714 30.178L135.227 26.2078ZM133.329 25.9964C132.979 25.8626 132.589 25.5623 132.233 24.7983L128.608 26.4888C129.297 27.9664 130.369 29.1466 131.9 29.7323L133.329 25.9964ZM132.233 24.7983C131.757 23.7787 131.793 22.8878 132.35 21.909L128.874 19.9309C127.676 22.0359 127.584 24.294 128.608 26.4888L132.233 24.7983ZM132.361 21.8904C132.974 20.7844 134.064 19.7792 135.835 18.9533L134.145 15.328C131.813 16.4151 129.984 17.9296 128.863 19.9495L132.361 21.8904ZM135.835 18.9533C136.975 18.4216 138.02 18.1542 138.982 18.1005L138.759 14.1067C137.211 14.1932 135.669 14.6172 134.145 15.328L135.835 18.9533ZM139.029 18.0973C140.001 18.0197 140.748 18.1695 141.34 18.4603L143.103 14.8696C141.758 14.2097 140.271 13.9854 138.711 14.11L139.029 18.0973ZM141.34 18.4603C141.873 18.7218 142.283 19.1283 142.586 19.7775L146.211 18.087C145.548 16.6638 144.506 15.5587 143.103 14.8696L141.34 18.4603ZM142.586 19.7775C142.663 19.9438 142.733 20.1394 142.789 20.3699L146.676 19.4232C146.563 18.9601 146.41 18.5128 146.211 18.087L142.586 19.7775ZM143.887 18.0839L139.7 20.0364L141.39 23.6616L145.578 21.7091L143.887 18.0839ZM142.472 21.3133C142.396 21.0412 142.297 20.7068 142.17 20.4349L138.545 22.1254C138.53 22.0947 138.524 22.0785 138.527 22.0842C138.528 22.0883 138.533 22.1025 138.542 22.1293C138.56 22.1841 138.586 22.2672 138.618 22.3848L142.472 21.3133ZM142.17 20.4349C141.592 19.1948 140.533 18.4029 139.189 18.1849L138.549 22.1333C138.587 22.1396 138.601 22.1459 138.598 22.1444C138.596 22.1438 138.591 22.1416 138.584 22.1375C138.577 22.1334 138.569 22.1281 138.56 22.1216C138.551 22.115 138.544 22.1083 138.537 22.102C138.531 22.0958 138.527 22.091 138.525 22.0887C138.521 22.0838 138.529 22.093 138.545 22.1254L142.17 20.4349ZM139.28 18.2019C138.05 17.9433 136.836 18.2054 135.727 18.7222L137.418 22.3474C138.001 22.0753 138.318 22.0869 138.458 22.1163L139.28 18.2019ZM135.727 18.7222C134.718 19.1928 133.792 19.8714 133.203 20.8618L136.642 22.9048C136.689 22.8269 136.862 22.6064 137.418 22.3474L135.727 18.7222ZM133.237 20.8079C132.621 21.7731 132.382 22.9882 132.945 24.1959L136.57 22.5054C136.587 22.5417 136.606 22.5952 136.618 22.6629C136.629 22.7312 136.63 22.7984 136.624 22.8589C136.61 22.9804 136.572 23.0176 136.609 22.9588L133.237 20.8079ZM132.945 24.1959C133.233 24.8137 133.704 25.3461 134.36 25.6854C134.987 26.01 135.647 26.0879 136.231 26.0591L136.033 22.064C135.937 22.0687 136.028 22.045 136.198 22.1326C136.284 22.1772 136.367 22.2396 136.439 22.3161C136.509 22.3912 136.549 22.4608 136.57 22.5054L132.945 24.1959ZM136.295 26.0549C137.148 25.9851 138.313 25.7395 139.707 25.3761L138.698 21.5055C137.337 21.8601 136.455 22.0284 135.969 22.0682L136.295 26.0549ZM139.699 25.3781C141.127 25.0119 142.259 24.7856 143.114 24.6806L142.627 20.7104C141.535 20.8444 140.221 21.115 138.705 21.5034L139.699 25.3781ZM143.114 24.6806C143.767 24.6006 144.379 24.6759 144.98 24.9064L146.411 21.1713C145.194 20.7049 143.923 20.5513 142.627 20.7104L143.114 24.6806ZM145.012 24.9182C145.326 25.0326 145.705 25.3065 146.062 26.0732L149.688 24.3827C149 22.9077 147.926 21.7222 146.38 21.1595L145.012 24.9182ZM146.062 26.0732C146.54 27.0984 146.5 27.998 145.911 28.998L149.358 31.0276C150.608 28.9044 150.728 26.6141 149.688 24.3827L146.062 26.0732ZM145.904 29.0107C145.27 30.1054 144.106 31.1508 142.175 32.0513L143.865 35.6765C146.29 34.5457 148.202 33.0237 149.365 31.0149L145.904 29.0107ZM158.103 8.75736L157.372 10.6192L157.38 10.6223L157.388 10.6253L158.103 8.75736ZM166.706 22.2394L167.552 24.052L169.364 23.2068L168.519 21.3941L166.706 22.2394ZM162.836 24.044L161.024 24.8892L161.869 26.7018L163.682 25.8566L162.836 24.044ZM161.564 21.316L163.377 20.4707L160.194 13.6452L159.571 21.1505L161.564 21.316ZM160.326 24.7896L158.699 23.6275L158.693 23.6352L158.688 23.643L160.326 24.7896ZM152.699 27.7285L152.101 29.637L152.111 29.6402L152.121 29.6433L152.699 27.7285ZM149.863 20.323L151.591 21.3307L151.596 21.3214L151.602 21.312L149.863 20.323ZM158.162 15.1789L158.614 17.1272L161.061 16.5597L159.96 14.302L158.162 15.1789ZM151.925 14.2256L153.657 15.2258L151.925 14.2256ZM152.182 16.2682L153.027 18.0808L155.238 17.0498L153.794 15.0839L152.182 16.2682ZM147.868 18.2798L146.315 19.5395L147.298 20.7524L148.713 20.0925L147.868 18.2798ZM146.928 14.277L148.865 14.7768L146.928 14.277ZM148.602 11.4885L150.02 12.8985L150.02 12.8985L148.602 11.4885ZM159.074 21.3575L160.825 22.3235L160.829 22.3154L159.074 21.3575ZM159.724 18.1966L161.717 18.0322L161.544 15.9344L159.458 16.2144L159.724 18.1966ZM154.012 20.9374L155.682 22.0381L155.687 22.0295L155.693 22.0209L154.012 20.9374ZM155.03 23.7837L154.584 25.7334L154.619 25.7413L154.654 25.748L155.03 23.7837ZM152.606 11.1327C154.639 10.1848 156.167 10.1465 157.372 10.6192L158.833 6.89551C156.32 5.90959 153.62 6.24641 150.916 7.50743L152.606 11.1327ZM157.388 10.6253C158.669 11.1154 159.804 12.1698 160.708 14.1076L164.333 12.4172C163.107 9.78723 161.297 7.83828 158.817 6.88944L157.388 10.6253ZM160.708 14.1076L164.894 23.0846L168.519 21.3941L164.333 12.4172L160.708 14.1076ZM165.861 20.4268L161.991 22.2313L163.682 25.8566L167.552 24.052L165.861 20.4268ZM164.649 23.1987L163.377 20.4707L159.752 22.1612L161.024 24.8892L164.649 23.1987ZM159.571 21.1505C159.49 22.1292 159.191 22.9374 158.699 23.6275L161.954 25.9517C162.894 24.635 163.421 23.1274 163.558 21.4814L159.571 21.1505ZM158.688 23.643C158.227 24.3022 157.531 24.8906 156.503 25.3696L158.194 28.9949C159.746 28.2709 161.036 27.2642 161.965 25.9362L158.688 23.643ZM156.503 25.3696C155.133 26.0086 154.097 26.0614 153.276 25.8137L152.121 29.6433C154.116 30.2451 156.18 29.9337 158.194 28.9949L156.503 25.3696ZM153.297 25.82C152.481 25.5644 151.884 25.0584 151.455 24.1379L147.83 25.8283C148.702 27.6992 150.143 29.0235 152.101 29.637L153.297 25.82ZM151.455 24.1379C150.994 23.1504 151.032 22.2892 151.591 21.3307L148.136 19.3152C146.921 21.3982 146.811 23.6438 147.83 25.8283L151.455 24.1379ZM151.602 21.312C152.207 20.2477 153.377 19.192 155.387 18.2549L153.696 14.6296C151.223 15.7831 149.274 17.3146 148.125 19.3339L151.602 21.312ZM155.387 18.2549C156.475 17.7474 157.551 17.3738 158.614 17.1272L157.71 13.2306C156.357 13.5444 155.019 14.013 153.696 14.6296L155.387 18.2549ZM159.96 14.302C159.277 12.902 158.322 11.661 156.946 11.0225C155.488 10.3454 153.962 10.5279 152.585 11.1701L154.276 14.7953C154.886 14.5106 155.144 14.5957 155.262 14.6507C155.464 14.7442 155.881 15.0647 156.364 16.0558L159.96 14.302ZM152.585 11.1701C151.636 11.6128 150.749 12.2619 150.193 13.2253L153.657 15.2258C153.67 15.2027 153.787 15.0233 154.276 14.7953L152.585 11.1701ZM150.193 13.2253C149.543 14.3502 149.576 15.5779 150.084 16.6672L153.709 14.9767C153.681 14.9164 153.705 14.941 153.704 15.0296C153.703 15.0718 153.696 15.1149 153.685 15.1544C153.674 15.1932 153.661 15.2174 153.657 15.2258L150.193 13.2253ZM150.084 16.6672C150.221 16.9604 150.414 17.2402 150.57 17.4525L153.794 15.0839C153.741 15.0117 153.708 14.9634 153.69 14.9354C153.682 14.922 153.679 14.918 153.682 14.9222C153.684 14.9257 153.694 14.9446 153.709 14.9767L150.084 16.6672ZM151.337 14.4556L147.023 16.4672L148.713 20.0925L153.027 18.0808L151.337 14.4556ZM149.422 17.0202C149.296 16.8658 149.165 16.6591 149.036 16.3835L145.411 18.074C145.657 18.6021 145.955 19.096 146.315 19.5395L149.422 17.0202ZM149.036 16.3835C148.769 15.811 148.729 15.3016 148.865 14.7768L144.992 13.7771C144.614 15.2425 144.771 16.701 145.411 18.074L149.036 16.3835ZM148.865 14.7768C149.018 14.1846 149.365 13.5573 150.02 12.8985L147.183 10.0785C146.121 11.1474 145.353 12.3791 144.992 13.7771L148.865 14.7768ZM150.02 12.8985C150.693 12.2218 151.545 11.6278 152.606 11.1327L150.916 7.50743C149.483 8.17585 148.228 9.02755 147.183 10.0785L150.02 12.8985ZM157.654 25.2691C159.021 24.6315 160.098 23.6407 160.825 22.3235L157.322 20.3916C157.016 20.9461 156.584 21.3545 155.963 21.6439L157.654 25.2691ZM160.829 22.3154C161.551 20.9918 161.842 19.5458 161.717 18.0322L157.73 18.3611C157.794 19.1283 157.651 19.7896 157.318 20.3997L160.829 22.3154ZM159.458 16.2144C158.087 16.3984 156.761 16.792 155.484 17.3874L157.175 21.0126C158.098 20.5824 159.034 20.3072 159.99 20.1789L159.458 16.2144ZM155.484 17.3874C154.211 17.9813 153.035 18.7606 152.331 19.8538L155.693 22.0209C155.795 21.8626 156.165 21.4837 157.175 21.0126L155.484 17.3874ZM152.342 19.8366C151.576 20.9987 151.459 22.349 152.055 23.6263L155.68 21.9359C155.667 21.9085 155.669 21.9038 155.672 21.9199C155.675 21.9373 155.678 21.9658 155.676 22.0004C155.673 22.0349 155.666 22.0598 155.662 22.0712C155.658 22.0813 155.66 22.0703 155.682 22.0381L152.342 19.8366ZM152.055 23.6263C152.531 24.6466 153.374 25.4568 154.584 25.7334L155.476 21.834C155.494 21.838 155.523 21.8471 155.56 21.8652C155.596 21.8834 155.629 21.9059 155.657 21.9295C155.713 21.9783 155.711 22.0013 155.68 21.9359L152.055 23.6263ZM154.654 25.748C155.722 25.9525 156.758 25.687 157.654 25.2691L155.963 21.6439C155.506 21.8571 155.356 21.8098 155.406 21.8194L154.654 25.748Z" fill="#C4C4C4" fill-opacity="0.2"/>
<path d="M25.2714 21.3086L15.8301 21.0039C14.3196 20.9552 12.7943 21.0895 11.4075 21.3933C10.0207 21.6971 8.82123 22.1598 7.92975 22.7348L2.35726 26.329C1.46578 26.904 0.913644 27.5711 0.756345 28.2632C0.599047 28.9553 0.842131 29.648 1.46117 30.2718L5.33048 34.1705C5.94951 34.7943 6.92268 35.3271 8.15218 35.7153C9.38167 36.1036 10.8242 36.3336 12.3347 36.3824L21.7763 36.687C23.2868 36.7357 24.8122 36.6014 26.199 36.2976C27.5858 35.9937 28.7852 35.531 29.6767 34.956L35.2488 31.3619C36.1403 30.7869 36.6924 30.1198 36.8498 29.4277C37.0071 28.7356 36.764 28.0429 36.1449 27.4192L32.2756 23.5204C31.6566 22.8966 30.6834 22.3639 29.4539 21.9756C28.2244 21.5874 26.7819 21.3573 25.2714 21.3086ZM22.2418 32.3103C20.7182 32.6442 19.0271 32.7673 17.3824 32.6642C15.7377 32.561 14.2132 32.2362 13.0018 31.7308C11.7903 31.2255 10.9464 30.5622 10.5765 29.825C10.2067 29.0877 10.3277 28.3096 10.9241 27.589C11.5206 26.8683 12.5657 26.2376 13.9274 25.7765C15.2891 25.3154 16.9061 25.0446 18.574 24.9984C20.242 24.9523 21.8859 25.1328 23.2979 25.5171C24.7098 25.9014 25.8265 26.4723 26.5066 27.1576C26.9582 27.6126 27.2061 28.1069 27.2362 28.6121C27.2662 29.1172 27.0779 29.6235 26.6819 30.102C26.2859 30.5805 25.6899 31.0218 24.9281 31.4007C24.1663 31.7796 23.2535 32.0887 22.2418 32.3103Z" fill="white"/>
<path d="M25.606 22.049L25.2714 21.3086L25.606 22.049C26.9777 22.0932 28.2212 22.3008 29.2201 22.6162C30.2091 22.9286 30.8902 23.3227 31.2988 23.7344L35.1681 27.6332C35.5767 28.0449 35.7815 28.5434 35.6549 29.1001C35.5272 29.6624 35.0663 30.2434 34.2567 30.7656L28.6846 34.3597C27.878 34.8799 26.7791 35.3063 25.4945 35.5878C24.21 35.8692 22.8084 35.9907 21.4417 35.9466L21.7763 36.687L21.4417 35.9466L12.0001 35.642C10.6284 35.5977 9.38484 35.3901 8.38604 35.0747C7.39704 34.7624 6.71588 34.3682 6.3073 33.9565L2.43799 30.0578C2.02942 29.6461 1.82462 29.1475 1.95115 28.5908C2.07893 28.0286 2.53976 27.4475 3.34932 26.9254C3.34933 26.9254 3.34933 26.9254 3.34933 26.9254L8.92181 23.3312L8.92182 23.3312C9.72843 22.8109 10.8273 22.3845 12.1119 22.1031C13.3964 21.8216 14.798 21.7002 16.1647 21.7443L25.606 22.049ZM17.66 33.4019C19.4747 33.5157 21.3088 33.3789 22.9463 33.0201C24.0358 32.7814 25.0236 32.4476 25.8531 32.0351C26.6818 31.6229 27.3461 31.1352 27.795 30.5929C28.2432 30.0513 28.477 29.4542 28.4398 28.8289C28.4023 28.1996 28.0899 27.5546 27.4834 26.9436C26.5645 26.0176 25.1097 25.3041 23.4449 24.8509C21.7892 24.4003 19.9412 24.2077 18.1343 24.2577C16.3213 24.3079 14.5768 24.6011 13.1089 25.0982C11.6433 25.5945 10.4853 26.2835 9.81103 27.0981C9.13911 27.9099 8.9489 28.8504 9.43104 29.8116C9.92434 30.795 11.0569 31.6674 12.5817 32.3035C14.0756 32.9267 15.8539 33.2886 17.66 33.4019Z" stroke="#C4C4C4" stroke-opacity="0.3" stroke-width="2"/>
</svg>
